HIERARCHY
ROOT Hips
{
  OFFSET 90.7885 88.945 -76.2838
  CHANNELS 6 Xposition Yposition Zposition Zrotation Xrotation Yrotation
  JOINT LeftUpLeg
  {
    OFFSET 8.64259 1.95398 -2.38835
    CHANNELS 3 Zrotation Xrotation Yrotation
    JOINT LeftLeg
    {
      OFFSET 43.7702 0 0
      CHANNELS 3 Zrotation Xrotation Yrotation
      JOINT LeftFoot
      {
        OFFSET 40.6238 0 0
        CHANNELS 3 Zrotation Xrotation Yrotation
        JOINT LeftToeBase
        {
          OFFSET 12.7242 0 0
          CHANNELS 3 Zrotation Xrotation Yrotation
          End Site
          {
            OFFSET 0 0 0
          }
        }
      }
    }
  }
  JOINT RightUpLeg
  {
    OFFSET -8.2249 1.95398 -2.59336
    CHANNELS 3 Zrotation Xrotation Yrotation
    JOINT RightLeg
    {
      OFFSET 43.5653 0 0
      CHANNELS 3 Zrotation Xrotation Yrotation
      JOINT RightFoot
      {
        OFFSET 40.6238 0 0
        CHANNELS 3 Zrotation Xrotation Yrotation
        JOINT RightToeBase
        {
          OFFSET 12.7242 0 0
          CHANNELS 3 Zrotation Xrotation Yrotation
          End Site
          {
            OFFSET 0 0 0
          }
        }
      }
    }
  }
  JOINT Spine
  {
    OFFSET 0.165834 0.87714 6.61349
    CHANNELS 3 Zrotation Xrotation Yrotation
    JOINT Spine1
    {
      OFFSET 7.38963 1.71661e-005 0
      CHANNELS 3 Zrotation Xrotation Yrotation
      JOINT Spine2
      {
        OFFSET 11.9445 1.14441e-005 0
        CHANNELS 3 Zrotation Xrotation Yrotation
        JOINT Spine3
        {
          OFFSET 14.7254 4.19617e-005 0
          CHANNELS 3 Zrotation Xrotation Yrotation
          JOINT Spine4
          {
            OFFSET 10.9679 0 0
            CHANNELS 3 Zrotation Xrotation Yrotation
            JOINT RightShoulder
            {
              OFFSET 2.46616 -1.6653 3.69651
              CHANNELS 3 Zrotation Xrotation Yrotation
              JOINT RightArm
              {
                OFFSET 13.0012 0 0
                CHANNELS 3 Zrotation Xrotation Yrotation
                JOINT RightForeArm
                {
                  OFFSET 28.7848 1.52588e-005 0
                  CHANNELS 3 Zrotation Xrotation Yrotation
                  JOINT RightHand
                  {
                    OFFSET 26.5688 1.52588e-005 0
                    CHANNELS 3 Zrotation Xrotation Yrotation
                    End Site
                    {
                      OFFSET 0 0 0
                    }
                  }
                }
              }
            }
            JOINT LeftShoulder
            {
              OFFSET 2.38034 -1.29275 -3.7523
              CHANNELS 3 Zrotation Xrotation Yrotation
              JOINT LeftArm
              {
                OFFSET 16.3182 6.10352e-005 0
                CHANNELS 3 Zrotation Xrotation Yrotation
                JOINT LeftForeArm
                {
                  OFFSET 27.0901 0 0
                  CHANNELS 3 Zrotation Xrotation Yrotation
                  JOINT LeftHand
                  {
                    OFFSET 24.5451 1.52588e-005 0
                    CHANNELS 3 Zrotation Xrotation Yrotation
                    End Site
                    {
                      OFFSET 0 0 0
                    }
                  }
                }
              }
            }
            JOINT Neck
            {
              OFFSET 5.0226 -0.0266342 0
              CHANNELS 3 Zrotation Xrotation Yrotation
              JOINT Head
              {
                OFFSET 6.69363 2.86102e-005 0
                CHANNELS 3 Zrotation Xrotation Yrotation
                End Site
                {
                  OFFSET 0 0 0
                }
              }
            }
          }
        }
      }
    }
  }
}
MOTION
Frames:	13
Frame Time:	0.0416667
1.95318 95.5788 -89.4895 -160.033 -80.0948 -162.621 -179.886 15.2052 86.9949 -7.78724 -1.24433 -1.98621 62.3955 2.57676 -4.44231 16.4479 -3.50027 6.04535 166.949 -19.2689 83.6837 -19.6331 -20.8243 -2.12539 82.9788 -11.5603 -3.08544 26.545 -2.05032 4.89627 1.13651 8.24313 -89.7095 10.385 2.39714 0.367648 -1.28381 2.411 0.261727 -23.8337 2.17578 1.07141 -3.82103 2.17578 1.0714 87.8033 -29.3941 -111.354 30.4984 -8.31481 -15.564 -1.61756 -26.4986 -22.9852 -26.6256 -0.596319 -8.76216 -89.4522 -60.8029 81.5581 -18.9555 14.8609 3.36632 3.65889 -0.331527 -8.62282 -2.8126 -0.104181 -4.08291 -1.24679 -2.78318 1.26127 -0.297389 -2.96672 -3.71466 
2.44724 95.5843 -81.6963 -145.486 -78.9459 -149.021 -178.912 15.5174 85.87 -15.0825 0.47932 -2.47645 57.9132 0.369952 -3.03097 11.9457 -2.99077 5.80369 165.209 -21.4997 80.1436 -21.5798 -24.4551 -3.87647 76.7046 -8.89061 -3.92473 35.8204 -2.73638 5.87799 1.32276 8.08585 -89.5096 10.6953 2.86017 0.712676 -0.97264 2.88876 0.585999 -23.5268 2.5137 1.53977 -3.51418 2.5137 1.53977 87.4958 -29.4114 -111.952 32.8389 -10.7478 -14.2957 0.777835 -25.4734 -19.5039 -25.9268 -0.516205 -8.89263 -88.8404 -61.5147 82.4887 -19.5373 12.2911 4.24987 4.61467 -1.30848 -9.06946 -3.89722 -0.106057 -4.47682 -1.65553 -2.51675 0.203779 -1.22973 -2.53802 -3.39628 
2.93597 95.8306 -74.1703 -143.169 -78.3545 -148.506 -177.704 15.3869 83.5776 -24.6488 1.73651 -3.60308 64.4104 2.22253 -2.94688 4.65884 -1.79787 5.08849 165.625 -18.7199 77.7707 -32.461 -24.5596 -6.2677 67.7332 -4.31013 -3.74611 43.758 -4.44902 10.9218 1.22841 7.96297 -89.2393 10.933 2.79766 1.24858 -0.735391 2.8499 1.12415 -23.2833 2.2931 2.03188 -3.2706 2.29309 2.03186 87.8506 -29.1952 -111.351 36.677 -13.5158 -12.0738 3.47398 -25.1538 -15.6815 -23.3723 -0.58305 -8.68979 -89.0709 -61.2371 82.1381 -18.9306 12.5885 2.94759 4.38223 -1.477 -8.43363 -3.61551 -0.10704 -4.64754 -2.63256 -2.44583 -0.641537 -2.63419 -2.32961 -3.70448 
3.2634 96.3701 -67.959 -140.928 -77.1721 -147.415 -177.709 11.6765 82.0162 -27.2035 1.14323 -4.28955 69.1413 3.98444 -1.59854 5.24211 -1.61863 4.86149 169.063 -10.8893 77.1184 -50.1045 -24.1022 -7.5031 58.218 0.21188 -1.32281 32.3637 -4.19085 10.105 1.12876 8.01052 -89.1347 10.835 2.64714 1.47379 -0.833945 2.70943 1.35581 -23.3771 2.0819 2.20129 -3.3644 2.08191 2.2013 87.7666 -28.9074 -111.648 39.257 -15.0036 -9.08187 5.19689 -23.5459 -13.6419 -22.9649 -0.459058 -8.97039 -89.5782 -62.0428 81.6006 -13.4056 17.1625 -4.59388 2.10162 1.92969 -4.60167 -3.25137 -0.106751 -4.36145 -2.77804 -2.0175 -0.331522 -3.31455 -1.92068 -3.68007 
3.24441 96.519 -62.7887 -139.537 -76.0724 -146.434 -177.676 8.30288 81.4722 -29.028 1.3097 -5.17084 72.96 5.23221 0.0442365 6.69304 -0.885454 4.01867 173.444 -2.35623 78.1301 -63.0438 -21.4696 -7.0854 56.8914 0.619007 0.0321062 24.632 -2.97513 7.23769 0.906461 8.12899 -89.1327 10.5994 2.20421 1.52511 -1.07048 2.26919 1.4266 -23.6077 1.64404 2.117 -3.59502 1.64405 2.117 88.0118 -28.9614 -111.136 40.5712 -15.3475 -6.64543 5.17274 -26.0643 -14.3654 -24.4264 -0.806528 -7.55443 -89.7205 -61.0944 81.2523 -9.89838 16.6734 -12.1568 1.97204 3.95833 -3.21323 -2.55675 -0.104605 -4.74849 -3.48635 -0.972789 -0.0164913 -2.80069 -0.94004 -3.38628 
3.0312 96.868 -58.1236 -139.829 -75.387 -145.746 -177.766 4.64142 82.0313 -29.4924 0.677762 -4.94173 75.8512 6.00918 -0.13719 8.15192 -0.684138 3.66156 176.335 4.8897 80.5722 -66.4457 -17.3221 -6.14956 67.068 -4.25188 -1.28659 25.1453 -2.9965 7.30798 0.581379 8.24715 -89.2499 10.3685 1.50172 1.35866 -1.30221 1.56006 1.29125 -23.8354 1.02403 1.74711 -3.82275 1.02403 1.74711 88.2387 -30.3508 -110.082 40.1177 -15.2786 -5.25661 4.45007 -23.1892 -15.3255 -23.5489 -0.617398 -7.8016 -90.0852 -58.0526 80.2122 -6.73055 17.4906 -17.4936 1.76677 0.945273 -5.94181 -1.43938 -0.100286 -5.10287 -4.24773 0.254862 -1.67574 -2.59424 0.42977 -0.856473 
2.71579 97.3825 -53.6525 -139.638 -75.7441 -143.64 -178.366 1.42757 82.8075 -28.4861 0.271624 -3.03101 78.024 6.13723 -0.569285 8.88289 -1.19636 4.11896 177.508 11.3478 84.1284 -60.2468 -12.2956 -5.16265 71.0462 -6.36892 -1.70964 24.705 -1.76062 4.67302 0.215435 8.24352 -89.5443 10.3838 0.637943 0.849582 -1.28731 0.674716 0.820674 -23.8207 0.353126 1.00202 -3.80808 0.353127 1.00202 88.4923 -30.68 -109.447 39.9559 -14.0916 -3.57216 4.17192 -24.6626 -15.9276 -23.3947 -0.595147 -8.43224 -89.5424 -56.1033 80.6053 -5.63584 15.2163 -20.6982 3.56731 0.492359 -11.5064 0.550873 -0.0894245 -4.32643 -5.82271 1.41312 -1.83661 -2.53307 1.56786 0.660137 
2.03836 97.763 -49.2654 -141.475 -76.7845 -143.895 -178.307 -1.99668 84.1536 -26.5105 1.14452 -1.90089 79.1951 6.47251 -0.310512 11.0013 -1.36212 4.08958 177.107 15.4007 87.2867 -46.6236 -10.0852 -4.01482 70.2001 -6.1574 -1.8151 25.1967 -0.94465 2.84332 -0.119158 8.24131 -89.7974 10.3913 -0.144487 0.415661 -1.27974 -0.12606 0.421613 -23.8146 -0.26273 0.353018 -3.80197 -0.262742 0.353015 88.6415 -30.928 -109.055 40.0916 -13.6259 -1.36612 3.46764 -21.9504 -16.8724 -23.9008 -0.482084 -8.16647 -89.3082 -53.1694 80.3861 -6.98737 11.7336 -25.1032 5.8188 2.85077 -13.1234 -0.25445 -0.13396 -6.62852 -6.8365 2.13039 -2.04975 -2.85431 2.2761 1.58776 
1.29581 97.6996 -44.7583 -141.606 -78.3638 -143.318 -177.739 -4.58186 85.3036 -24.8961 3.02539 -1.7801 80.9455 7.1592 -0.329401 10.7539 -1.26849 4.01277 176.104 17.0236 89.1234 -27.723 -8.10023 -2.26946 64.1738 -3.8169 -0.353481 27.9761 -1.38702 3.40104 -0.310795 8.19655 -89.9137 10.481 -0.57944 0.22272 -1.18979 -0.569067 0.247996 -23.726 -0.619586 0.0382697 -3.71333 -0.619581 0.0382692 88.6373 -31.9071 -108.668 39.9988 -12.0908 0.0415908 4.24106 -22.7291 -16.4796 -24.0941 -0.489827 -8.3476 -89.2946 -50.5371 79.8923 -8.57877 9.59547 -29.1529 7.20625 2.99908 -15.1625 1.21176 -0.172642 -6.99449 -6.91908 2.25074 -3.841 -3.58896 2.50691 3.23362 
0.892431 97.2174 -39.8169 -151.348 -80.0595 -153.639 -177.604 -8.68797 85.447 -22.5994 5.55897 -1.67224 82.7812 8.27371 -0.394941 11.6085 -1.69926 4.39862 173.973 16.2427 89.1253 -10.6321 -7.95807 -1.09849 61.5519 -2.48479 -1.90793 26.9799 -2.39263 5.8177 -0.601682 8.21844 -89.9107 10.4387 -1.15758 0.279416 -1.2318 -1.14416 0.330085 -23.771 -1.18803 -0.0814536 -3.7584 -1.18803 -0.0814611 88.3491 -33.0994 -108.743 39.8055 -10.9576 1.86626 3.09088 -22.9835 -16.8189 -22.7674 -0.568791 -8.16143 -89.7237 -50.5262 79.2513 -8.75361 8.04241 -32.7177 8.25993 3.89468 -16.7654 2.24521 -0.185291 -6.737 -6.59142 2.18486 -4.44262 -4.08922 2.48056 3.59908 
0.345188 96.3341 -34.1378 -168.923 -81.2361 -171.459 -176.62 -12.8809 86.832 -21.5039 8.92152 -1.69379 85.3089 9.80498 -0.708808 12.3717 -1.31106 3.89946 173.004 17.8747 88.6795 -7.50409 -5.36612 -0.689578 63.541 -2.01023 0.151051 28.1669 -2.4715 5.89756 -0.840908 8.2225 -89.9928 10.4309 -1.67178 0.161434 -1.23897 -1.66304 0.234867 -23.7825 -1.64299 -0.348607 -3.76989 -1.64298 -0.348603 88.8511 -33.4979 -107.648 40.2056 -10.6667 2.69599 4.47174 -23.4059 -14.4029 -22.3142 -0.526934 -8.59651 -90.4193 -51.7849 78.4904 -8.24906 8.43936 -35.7702 8.32036 5.50214 -16.4431 2.04693 -0.201733 -7.25125 -6.17755 2.06849 -4.13231 -4.35933 2.34568 3.5315 
-0.460302 95.5461 -27.7386 169.281 -81.35 166.778 -174.604 -17.1481 89.8317 -20.2925 13.1167 -1.78961 85.1548 10.3791 -1.19301 18.0235 -1.10355 3.05841 172.88 16.8181 88.1856 -8.60718 -6.56814 -0.949504 58.6715 0.0889474 0.940943 27.2514 -1.40969 3.5594 -1.07432 8.104 -89.9988 10.6692 -2.13891 0.197342 -0.999986 -2.12816 0.291328 -23.5489 -2.0993 -0.454899 -3.53624 -2.0993 -0.454912 88.8401 -34.2145 -107.401 41.0542 -10.3051 3.88704 5.39654 -23.1128 -12.4783 -21.0746 -0.517061 -8.75607 -90.461 -50.9993 78.2597 -9.74672 10.5553 -36.5134 7.91693 9.41042 -13.4552 0.808482 -0.148622 -6.50314 -6.23558 1.61085 -4.56883 -5.20236 1.90231 3.44391 
-1.37167 95.5467 -20.8647 153.864 -80.5628 152.368 -172.505 -20.5547 93.5261 -19.6783 16.2558 -0.692253 79.6699 8.75643 -0.907091 29.4427 -0.980149 1.34254 172.456 17.6343 88.5259 -15.5161 -7.72817 -0.300332 54.2799 2.88837 0.339336 25.8764 -1.71948 4.43884 -1.2011 7.95975 -90.1694 10.956 -2.46956 -0.101295 -0.712619 -2.47162 0.00755014 -23.2651 -2.32489 -0.839226 -3.2524 -2.32489 -0.839225 89.0836 -34.0101 -107.023 41.5128 -9.86213 4.59259 5.97348 -22.3565 -10.8668 -19.8431 -0.594586 -8.13082 -90.3443 -51.6768 78.5769 -11.0624 13.5727 -34.7274 6.2265 12.8098 -9.57034 -0.413835 -0.114549 -5.84348 -5.72292 1.50905 -3.44515 -6.59747 1.70885 2.69094 
